<?xml version="1.0" encoding="iso-8859-1"?>
<!-- Generator: Adobe Illustrator 19.0.0, SVG Export Plug-In . SVG Version: 6.00 Build 0)  -->
<svg version="1.1" id="Capa_1" xmlns="http://www.w3.org/2000/svg" xmlns:xlink="http://www.w3.org/1999/xlink" x="0px" y="0px"
	 viewBox="0 0 490 490" style="enable-background:new 0 0 490 490;" xml:space="preserve">
<g>
	<g>
		<polygon points="209.2,490 280.8,465.5 280.8,352.3 209.2,352.3 		"/>
		<path d="M371.8,0H118.2v168.8h253.6V0z M204.2,70.8c0,3.1-1.7,5.9-4.5,7.2l-23.5,11.4l23.6,11.8c2.7,1.4,4.4,4.1,4.4,7.1v0.2
			c0,5.9-6.2,9.8-11.5,7.2l-29-14.1c-4.5-2.2-7.4-6.8-7.4-11.8s2.8-9.5,7.3-11.8l29-14.4C197.9,61,204.2,64.9,204.2,70.8L204.2,70.8
			z M265.5,57l-35,79.9c-1.1,2.6-3.7,4.3-6.5,4.3c-5.1,0-8.6-5.3-6.5-10l35-79.9c1.1-2.6,3.7-4.3,6.5-4.3
			C264.1,47.1,267.6,52.3,265.5,57z M326.4,101.1l-29.2,14.2c-5.3,2.6-11.4-1.3-11.4-7.1V108c0-3,1.7-5.8,4.4-7.1l23.6-11.8
			l-23.5-11.4c-2.7-1.3-4.5-4.1-4.5-7.2c0-5.9,6.2-9.8,11.5-7.1l29.2,14.7c4.3,2.2,7.1,6.6,7.1,11.5
			C333.7,94.5,330.9,99,326.4,101.1z"/>
		<polygon points="76.2,188.6 209.2,332.5 280.8,332.5 413.8,188.6 		"/>
	</g>
</g>
<g>
</g>
<g>
</g>
<g>
</g>
<g>
</g>
<g>
</g>
<g>
</g>
<g>
</g>
<g>
</g>
<g>
</g>
<g>
</g>
<g>
</g>
<g>
</g>
<g>
</g>
<g>
</g>
<g>
</g>
</svg>
