<svg xmlns="http://www.w3.org/2000/svg" xmlns:xlink="http://www.w3.org/1999/xlink" version="1.1" width="256" height="256" viewBox="0 0 256 256" xml:space="preserve">
<desc>Created with Fabric.js 1.7.22</desc>
<defs>
</defs>
<g transform="translate(128 128) scale(0.72 0.72)" style="">
	<g style="stroke: none; stroke-width: 0; stroke-dasharray: none; stroke-linecap: butt; stroke-linejoin: miter; stroke-miterlimit: 10; fill: none; fill-rule: nonzero; opacity: 1;" transform="translate(-175.05 -175.05000000000004) scale(3.89 3.89)" >
	<path d="M 61.852 56.29 c -7.519 0 -14.588 -2.928 -19.904 -8.245 c -5.317 -5.316 -8.245 -12.385 -8.245 -19.903 s 2.928 -14.587 8.245 -19.904 c 10.974 -10.975 28.833 -10.975 39.807 0 C 87.072 13.554 90 20.623 90 28.142 s -2.928 14.587 -8.245 19.903 l 0 0 C 76.439 53.361 69.371 56.29 61.852 56.29 z M 61.852 6.063 c -5.657 0 -11.314 2.153 -15.619 6.459 c -4.173 4.173 -6.47 9.719 -6.47 15.62 c 0 5.9 2.298 11.447 6.47 15.619 c 4.172 4.172 9.719 6.47 15.619 6.47 c 5.899 0 11.447 -2.298 15.619 -6.469 v 0 c 4.172 -4.172 6.469 -9.719 6.469 -15.619 c 0 -5.9 -2.298 -11.447 -6.469 -15.62 C 73.165 8.216 67.508 6.063 61.852 6.063 z" style="stroke: none; stroke-width: 1; stroke-dasharray: none; stroke-linecap: butt; stroke-linejoin: miter; stroke-miterlimit: 10; fill: rgb(191,203,217); fill-rule: nonzero; opacity: 1;" transform=" matrix(1 0 0 1 0 0) " stroke-linecap="round" />
	<rect x="-6.55" y="63.85" rx="0" ry="0" width="59.32" height="6.06" style="stroke: none; stroke-width: 1; stroke-dasharray: none; stroke-linecap: butt; stroke-linejoin: miter; stroke-miterlimit: 10; fill: rgb(191,203,217); fill-rule: nonzero; opacity: 1;" transform=" matrix(0.707 -0.7072 0.7072 0.707 -40.5223 35.941) "/>
	<rect x="19.33" y="71.51" rx="0" ry="0" width="6.06" height="18.71" style="stroke: none; stroke-width: 1; stroke-dasharray: none; stroke-linecap: butt; stroke-linejoin: miter; stroke-miterlimit: 10; fill: rgb(191,203,217); fill-rule: nonzero; opacity: 1;" transform=" matrix(0.7071 -0.7071 0.7071 0.7071 -50.6271 39.4944) "/>
</g>
</g>
</svg>