<svg xmlns="http://www.w3.org/2000/svg" xmlns:xlink="http://www.w3.org/1999/xlink" version="1.1" width="256" height="256" viewBox="0 0 256 256" xml:space="preserve">
<desc>Created with Fabric.js 1.7.22</desc>
<defs>
</defs>
<g transform="translate(128 128) scale(0.72 0.72)" style="">
	<g style="stroke: none; stroke-width: 0; stroke-dasharray: none; stroke-linecap: butt; stroke-linejoin: miter; stroke-miterlimit: 10; fill: none; fill-rule: nonzero; opacity: 1;" transform="translate(-175.05 -175.05000000000004) scale(3.89 3.89)" >
	<path d="M 40.167 49.204 c -13.565 0 -24.602 -11.037 -24.602 -24.602 S 26.601 0 40.167 0 c 13.566 0 24.602 11.037 24.602 24.602 S 53.732 49.204 40.167 49.204 z M 40.167 6 c -10.257 0 -18.602 8.345 -18.602 18.602 s 8.345 18.602 18.602 18.602 s 18.602 -8.345 18.602 -18.602 S 50.424 6 40.167 6 z" style="stroke: none; stroke-width: 1; stroke-dasharray: none; stroke-linecap: butt; stroke-linejoin: miter; stroke-miterlimit: 10; fill: rgb(191,203,217); fill-rule: nonzero; opacity: 1;" transform=" matrix(1 0 0 1 0 0) " stroke-linecap="round" />
	<path d="M 46.435 90 H 9.092 c -1.657 0 -3 -1.343 -3 -3 v -9.722 c 0 -18.789 15.286 -34.074 34.074 -34.074 c 4.781 0 9.406 0.971 13.747 2.888 c 1.516 0.669 2.202 2.439 1.532 3.956 c -0.669 1.515 -2.437 2.201 -3.956 1.532 c -3.571 -1.576 -7.381 -2.376 -11.323 -2.376 c -15.48 0 -28.074 12.594 -28.074 28.074 V 84 h 34.342 c 1.657 0 3 1.343 3 3 S 48.092 90 46.435 90 z" style="stroke: none; stroke-width: 1; stroke-dasharray: none; stroke-linecap: butt; stroke-linejoin: miter; stroke-miterlimit: 10; fill: rgb(191,203,217); fill-rule: nonzero; opacity: 1;" transform=" matrix(1 0 0 1 0 0) " stroke-linecap="round" />
	<path d="M 76.678 67.535 c -1.657 0 -3 -1.343 -3 -3 v -6.199 c 0 -2.907 -2.365 -5.272 -5.271 -5.272 h -1.482 c -2.906 0 -5.271 2.365 -5.271 5.272 v 6.199 c 0 1.657 -1.343 3 -3 3 s -3 -1.343 -3 -3 v -6.199 c 0 -6.216 5.057 -11.272 11.271 -11.272 h 1.482 c 6.215 0 11.271 5.057 11.271 11.272 v 6.199 C 79.678 66.192 78.335 67.535 76.678 67.535 z" style="stroke: none; stroke-width: 1; stroke-dasharray: none; stroke-linecap: butt; stroke-linejoin: miter; stroke-miterlimit: 10; fill: rgb(191,203,217); fill-rule: nonzero; opacity: 1;" transform=" matrix(1 0 0 1 0 0) " stroke-linecap="round" />
	<path d="M 79.656 64.535 H 55.675 c -1.668 0 -3.021 1.352 -3.021 3.021 v 19.423 c 0 1.668 1.352 3.021 3.021 3.021 h 23.981 c 1.668 0 3.021 -1.352 3.021 -3.021 V 67.556 C 82.676 65.888 81.324 64.535 79.656 64.535 z M 70.665 78.581 c 0 1.657 -1.343 3 -3 3 s -3 -1.343 -3 -3 v -1.809 c 0 -1.657 1.343 -3 3 -3 s 3 1.343 3 3 V 78.581 z" style="stroke: none; stroke-width: 1; stroke-dasharray: none; stroke-linecap: butt; stroke-linejoin: miter; stroke-miterlimit: 10; fill: rgb(191,203,217); fill-rule: nonzero; opacity: 1;" transform=" matrix(1 0 0 1 0 0) " stroke-linecap="round" />
</g>
</g>
</svg>