<svg xmlns="http://www.w3.org/2000/svg" xmlns:xlink="http://www.w3.org/1999/xlink" version="1.1" width="256" height="256" viewBox="0 0 256 256" xml:space="preserve">
<desc>Created with Fabric.js 1.7.22</desc>
<defs>
</defs>
<g transform="translate(128 128) scale(0.72 0.72)" style="">
	<g style="stroke: none; stroke-width: 0; stroke-dasharray: none; stroke-linecap: butt; stroke-linejoin: miter; stroke-miterlimit: 10; fill: none; fill-rule: nonzero; opacity: 1;" transform="translate(-175.05 -175.05000000000004) scale(3.89 3.89)" >
	<path d="M 27.887 9.495 c 6.422 0 11.647 5.225 11.647 11.647 v 5.253 c 0 6.422 -5.225 11.647 -11.647 11.647 c -6.422 0 -11.647 -5.225 -11.647 -11.647 v -5.253 C 16.24 14.72 21.465 9.495 27.887 9.495 M 27.887 6.495 L 27.887 6.495 c -8.056 0 -14.647 6.591 -14.647 14.647 v 5.253 c 0 8.056 6.591 14.647 14.647 14.647 h 0 c 8.056 0 14.647 -6.591 14.647 -14.647 v -5.253 C 42.534 13.087 35.943 6.495 27.887 6.495 L 27.887 6.495 z" style="stroke: none; stroke-width: 1; stroke-dasharray: none; stroke-linecap: butt; stroke-linejoin: miter; stroke-miterlimit: 10; fill: rgb(0,0,0); fill-rule: nonzero; opacity: 1;" transform=" matrix(1 0 0 1 0 0) " stroke-linecap="round" />
	<path d="M 36.579 46.175 c 9.293 1.823 16.195 10.118 16.195 19.657 v 14.672 H 3 V 65.832 c 0 -9.539 6.901 -17.834 16.195 -19.657 c 2.751 1.262 5.67 1.901 8.692 1.901 S 33.828 47.438 36.579 46.175 M 36.134 43.055 c -2.478 1.283 -5.278 2.022 -8.248 2.022 s -5.77 -0.738 -8.248 -2.022 C 8.565 44.708 0 54.317 0 65.832 v 15.151 c 0 1.387 1.134 2.521 2.521 2.521 h 50.732 c 1.387 0 2.521 -1.134 2.521 -2.521 V 65.832 C 55.774 54.317 47.208 44.708 36.134 43.055 L 36.134 43.055 z" style="stroke: none; stroke-width: 1; stroke-dasharray: none; stroke-linecap: butt; stroke-linejoin: miter; stroke-miterlimit: 10; fill: rgb(0,0,0); fill-rule: nonzero; opacity: 1;" transform=" matrix(1 0 0 1 0 0) " stroke-linecap="round" />
	<path d="M 53.248 43.055 c -1.057 0.547 -2.175 0.988 -3.337 1.322 c 6.336 5.103 10.363 12.915 10.363 21.455 v 15.151 c 0 0.889 -0.173 1.737 -0.476 2.521 h 10.568 c 1.387 0 2.521 -1.134 2.521 -2.521 V 65.832 C 72.887 54.317 64.321 44.708 53.248 43.055 z" style="stroke: none; stroke-width: 1; stroke-dasharray: none; stroke-linecap: butt; stroke-linejoin: miter; stroke-miterlimit: 10; fill: rgb(0,0,0); fill-rule: nonzero; opacity: 1;" transform=" matrix(1 0 0 1 0 0) " stroke-linecap="round" />
	<path d="M 47.034 21.143 v 5.253 c 0 5.201 -2.091 9.917 -5.468 13.371 c 1.046 0.357 2.06 0.78 3.044 1.256 c 0.131 0.003 0.258 0.02 0.39 0.02 c 8.056 0 14.647 -6.591 14.647 -14.647 v -5.253 c 0 -8.056 -6.591 -14.647 -14.647 -14.647 c -1.437 0 -2.823 0.218 -4.137 0.608 C 44.647 10.604 47.034 15.594 47.034 21.143 z" style="stroke: none; stroke-width: 1; stroke-dasharray: none; stroke-linecap: butt; stroke-linejoin: miter; stroke-miterlimit: 10; fill: rgb(0,0,0); fill-rule: nonzero; opacity: 1;" transform=" matrix(1 0 0 1 0 0) " stroke-linecap="round" />
	<path d="M 70.361 43.055 c -1.057 0.547 -2.175 0.988 -3.337 1.322 c 6.336 5.103 10.363 12.915 10.363 21.455 v 15.151 c 0 0.889 -0.173 1.737 -0.476 2.521 h 10.568 c 1.387 0 2.521 -1.134 2.521 -2.521 V 65.832 C 90 54.317 81.435 44.708 70.361 43.055 z" style="stroke: none; stroke-width: 1; stroke-dasharray: none; stroke-linecap: butt; stroke-linejoin: miter; stroke-miterlimit: 10; fill: rgb(0,0,0); fill-rule: nonzero; opacity: 1;" transform=" matrix(1 0 0 1 0 0) " stroke-linecap="round" />
	<path d="M 64.147 21.143 v 5.253 c 0 5.201 -2.091 9.917 -5.468 13.371 c 1.046 0.357 2.06 0.78 3.044 1.256 c 0.131 0.003 0.258 0.02 0.39 0.02 c 8.056 0 14.647 -6.591 14.647 -14.647 v -5.253 c 0 -8.056 -6.591 -14.647 -14.647 -14.647 c -1.437 0 -2.823 0.218 -4.137 0.608 C 61.76 10.604 64.147 15.594 64.147 21.143 z" style="stroke: none; stroke-width: 1; stroke-dasharray: none; stroke-linecap: butt; stroke-linejoin: miter; stroke-miterlimit: 10; fill: rgb(0,0,0); fill-rule: nonzero; opacity: 1;" transform=" matrix(1 0 0 1 0 0) " stroke-linecap="round" />
</g>
</g>
</svg>