<?xml version="1.0" standalone="no"?>
<!DOCTYPE svg PUBLIC "-//W3C//DTD SVG 20010904//EN"
 "http://www.w3.org/TR/2001/REC-SVG-20010904/DTD/svg10.dtd">
<svg version="1.0" xmlns="http://www.w3.org/2000/svg"
 width="500.000000pt" height="500.000000pt" viewBox="0 0 500.000000 500.000000"
 preserveAspectRatio="xMidYMid meet">

<g transform="translate(0.000000,500.000000) scale(0.100000,-0.100000)"
fill="#000000" stroke="none">
<path d="M0 2500 l0 -2500 2500 0 2500 0 0 2500 0 2500 -2500 0 -2500 0 0
-2500z m1887 2244 c107 -45 180 -130 209 -243 21 -82 12 -156 -27 -237 -34
-73 -90 -126 -168 -163 -49 -23 -68 -26 -158 -26 l-102 1 -20 -46 c-122 -283
-209 -516 -501 -1344 -187 -531 -340 -976 -340 -989 0 -14 9 -35 19 -48 18
-22 26 -24 118 -23 82 1 114 6 198 33 198 65 271 109 1045 620 410 271 744
498 743 504 -2 7 -93 233 -203 502 l-201 490 43 137 c23 76 46 134 49 130 4
-4 86 -180 182 -392 267 -588 407 -887 569 -1211 217 -436 241 -507 242 -699
1 -106 -1 -120 -27 -175 -64 -138 -173 -195 -370 -195 -99 0 -251 25 -336 55
-43 15 -44 15 -77 -15 -64 -56 -111 -73 -209 -78 -74 -3 -100 0 -147 18 -74
28 -146 93 -183 167 -27 53 -30 67 -30 158 0 95 2 103 34 163 39 71 78 110
154 150 47 24 62 27 152 27 86 0 107 -4 150 -25 104 -51 184 -162 193 -267 5
-63 8 -65 124 -92 174 -41 275 -39 327 5 73 61 52 142 -147 551 -86 178 -160
323 -164 323 -9 0 -361 -212 -628 -378 -227 -141 -542 -351 -715 -477 -346
-251 -519 -316 -815 -302 -181 8 -278 56 -332 165 -20 41 -23 62 -23 157 0
113 9 158 60 295 13 36 60 181 105 323 226 725 517 1463 723 1835 l57 101 -22
48 c-18 39 -22 66 -22 143 0 84 3 101 27 148 53 101 140 171 239 192 56 12
157 4 205 -16z m139 -4364 c-11 -44 -23 -75 -25 -69 -3 10 26 125 36 142 12
19 9 0 -11 -73z m1034 -15 c-10 -39 -19 -61 -19 -49 -1 23 28 128 34 122 2 -2
-5 -35 -15 -73z m-965 35 c3 -5 -1 -10 -10 -10 -9 0 -13 5 -10 10 3 6 8 10 10
10 2 0 7 -4 10 -10z m59 -6 c3 -8 2 -12 -4 -9 -6 3 -10 10 -10 16 0 14 7 11
14 -7z m231 -40 c-14 -48 -33 -78 -21 -34 4 14 9 40 13 57 3 18 9 30 14 28 4
-3 2 -26 -6 -51z m212 24 c-3 -7 -5 -2 -5 12 0 14 2 19 5 13 2 -7 2 -19 0 -25z
m116 -11 c-7 -36 -22 -71 -29 -64 -2 2 3 23 11 47 8 23 12 47 8 53 -3 6 -1 7
5 3 7 -4 9 -20 5 -39z m217 -33 c-17 -52 -22 -36 -7 26 7 33 13 45 15 31 2
-12 -2 -37 -8 -57z m-1086 30 c-8 -20 -13 -43 -10 -50 3 -8 1 -14 -4 -14 -15
0 -12 37 5 70 22 42 27 37 9 -6z m51 -8 c-8 -24 -11 -47 -8 -50 4 -3 1 -6 -6
-6 -7 0 -11 6 -8 14 3 8 9 31 13 50 3 20 10 36 14 36 4 0 2 -20 -5 -44z m69 8
c-8 -20 -13 -43 -10 -51 3 -8 1 -11 -4 -8 -14 9 -12 31 5 65 22 42 27 37 9 -6z
m240 0 c-8 -20 -13 -43 -10 -50 3 -8 1 -14 -4 -14 -15 0 -12 37 5 70 22 42 27
37 9 -6z m51 -8 c-8 -24 -11 -47 -8 -50 4 -3 1 -6 -6 -6 -7 0 -11 6 -8 14 3 8
9 31 13 50 3 20 10 36 14 36 4 0 2 -20 -5 -44z m73 -9 c-5 -26 -14 -47 -19
-47 -6 0 -8 3 -6 8 3 4 10 27 17 51 15 57 21 49 8 -12z m125 22 c-8 -16 -13
-39 -10 -50 3 -10 1 -17 -4 -13 -14 8 -11 47 7 72 22 31 25 27 7 -9z m57 21
c0 -5 -5 -10 -11 -10 -5 0 -7 5 -4 10 3 6 8 10 11 10 2 0 4 -4 4 -10z m246
-46 c-8 -27 -15 -40 -15 -28 -1 24 19 87 26 81 2 -3 -2 -27 -11 -53z m115 33
c-10 -9 -11 -8 -5 6 3 10 9 15 12 12 3 -3 0 -11 -7 -18z m115 -33 c-8 -27 -15
-40 -15 -28 -1 24 19 87 26 81 2 -3 -2 -27 -11 -53z m174 -20 c0 -22 -15 -23
-17 -1 -1 12 -4 36 -8 52 -6 30 -6 30 10 -4 8 -18 15 -39 15 -47z m-510 1
c-16 -42 -20 -26 -7 25 8 28 13 37 15 24 2 -11 -2 -33 -8 -49z m179 44 c-6
-12 -9 -32 -6 -46 3 -15 0 -22 -7 -20 -14 5 -11 54 5 73 17 21 21 17 8 -7z
m-737 -35 c-3 -25 -8 -32 -15 -25 -7 7 -7 18 1 36 16 34 19 32 14 -11z m454 2
c-1 -37 -16 -39 -16 -2 0 19 7 36 15 36 1 0 1 -15 1 -34z"/>
<path d="M1682 4540 c-45 -27 -75 -96 -66 -147 9 -50 67 -108 117 -117 50 -9
119 21 147 66 17 26 20 45 17 87 -3 48 -8 58 -45 93 -36 33 -47 38 -89 38 -31
0 -60 -7 -81 -20z"/>
<path d="M2482 1804 c-128 -66 -94 -256 49 -271 110 -11 191 102 144 201 -34
72 -124 105 -193 70z"/>
</g>
</svg>
